<?xml version="1.0" encoding="UTF-8" standalone="no"?>
<!DOCTYPE svg PUBLIC "-//W3C//DTD SVG 1.1//EN" "http://www.w3.org/Graphics/SVG/1.1/DTD/svg11.dtd">
<!-- Created with Vectornator (http://vectornator.io/) -->
<svg height="100%" stroke-miterlimit="10" style="fill-rule:nonzero;clip-rule:evenodd;stroke-linecap:round;stroke-linejoin:round;" version="1.1" viewBox="0 0 379.157 366.132" width="100%" xml:space="preserve" xmlns="http://www.w3.org/2000/svg" xmlns:vectornator="http://vectornator.io" xmlns:xlink="http://www.w3.org/1999/xlink">
<defs/>
<clipPath id="ArtboardFrame">
<rect height="366.132" width="379.157" x="0" y="0"/>
</clipPath>
<g clip-path="url(#ArtboardFrame)" id="Calque-1" vectornator:layerName="Calque 1">
<path d="M282.197 99.1307C232.029 165.218 205.98 198.261 204.05 198.261C202.121 198.261 191.749 187.89 172.936 167.147C154.123 146.405 143.51 136.516 141.098 137.481C138.687 138.445 133.863 143.51 126.627 152.676C119.391 161.841 115.773 167.147 115.773 168.595C115.773 170.042 131.692 185.961 163.529 216.351C195.367 246.741 212.492 261.695 214.904 261.213C217.316 260.731 220.21 257.595 223.587 251.806C226.963 246.018 239.264 223.104 260.489 183.066C281.715 143.028 303.663 103.231 326.335 63.6752C349.008 24.1194 359.861 3.61791 358.897 2.17075C358.414 1.44716 357.932 0.723582 357.449-5.68434e-14C332.365 33.0436 307.281 66.0871 282.197 99.1307ZM22.431 26.0489C18.0895 27.9785 14.2304 30.6316 10.8537 34.0083C7.47701 37.3851 4.82388 41.2442 2.89433 45.5857C0.964776 49.9271 0 54.2686 0 58.6101C0 62.9516 6.27104 108.537 18.8131 195.367C31.3552 282.197 38.591 328.506 40.5206 334.295C42.4501 340.083 45.5857 345.39 49.9271 350.214C54.2686 355.037 59.8161 358.897 66.5695 361.791C73.323 364.685 81.7647 366.132 91.8949 366.132C102.025 366.132 126.627 362.032 165.7 353.831C204.774 345.631 244.812 338.154 285.815 331.4C326.818 324.647 351.178 318.858 358.897 314.034C366.615 309.211 371.921 303.663 374.815 297.392C377.71 291.121 379.157 284.85 379.157 278.579C379.157 272.308 373.851 248.671 363.238 207.668C352.626 166.665 346.837 144.716 345.872 141.822C344.907 138.928 343.46 137.239 341.531 136.757C339.601 136.275 337.672 137.239 335.742 139.651C333.812 142.063 332.365 145.44 331.4 149.781C330.436 154.123 334.295 173.177 342.978 206.944C351.661 240.712 356.243 260.489 356.726 266.278C357.208 272.067 356.485 277.132 354.555 281.473C352.626 285.815 314.034 294.98 238.782 308.969C163.529 322.959 121.321 330.194 112.155 330.677C102.99 331.159 96.4776 330.677 92.6185 329.23C88.7594 327.783 85.1415 325.129 81.7647 321.27C78.388 317.411 75.9761 312.829 74.5289 307.522C73.0818 302.216 67.5343 264.107 57.8865 193.196C48.2388 122.285 43.1737 82.4883 42.6913 73.8053C42.2089 65.1224 42.4501 59.5749 43.4149 57.163C44.3797 54.751 47.0328 52.3391 51.3743 49.9271C55.7158 47.5152 61.0221 46.3092 67.2931 46.3092C73.5641 46.3092 101.301 49.2036 150.505 54.9922C199.709 60.7809 228.652 63.6752 237.335 63.6752C246.018 63.6752 252.048 62.7104 255.424 60.7809C258.801 58.8513 261.213 56.1982 262.66 52.8215C263.384 51.1331 264.107 49.4448 264.831 47.7564C262.419 47.0328 260.007 46.3092 257.595 45.5857C252.771 44.1385 213.457 40.0382 139.651 33.2848C65.8459 26.5313 26.7725 24.1194 22.431 26.0489Z" fill="#ff0000" fill-rule="nonzero" opacity="1" stroke="none" vectornator:layerName="Courbe 1"/>
</g>
</svg>
