<?xml version="1.0" encoding="UTF-8"?>
<svg id="Layer_1" data-name="Layer 1" xmlns="http://www.w3.org/2000/svg" viewBox="0 0 60 60">
  <defs>
    <style>
      .cls-1 {
        fill: #e5ab6a;
      }

      .cls-2 {
        fill: #252122;
      }

      .cls-3 {
        fill: #fff;
      }

      .cls-4 {
        fill: #f89f40;
      }
    </style>
  </defs>
  <path class="cls-3" d="M0,0h60v60H0V0Z"/>
  <g>
    <path class="cls-2" d="M13.9,33.8c1.55.38.9,2.42.46,3.36-.27.47-.61.85-1.08,1.11-.52.27-1.06.41-1.67.41h-7.32s1.57-5.86,1.57-5.86l.96-3.42h6.9c.51,0,.98.03,1.43.18.63.21.97.77.9,1.43-.06.55-.22,1.07-.48,1.55-.35.65-.91,1.04-1.66,1.22ZM11.81,31.84c-.15-.54-1.25-.41-1.63-.4l-.46,1.69c.42.04.85.07,1.28-.05.54-.14.96-.65.8-1.23ZM10.98,35.4c.08-.43-.09-.8-.53-.9-.34-.08-.7-.08-1.08-.06l-.6,2.24c1.04.11,1.98-.08,2.2-1.28Z"/>
    <path class="cls-2" d="M50.67,33.68l-1.36,5.01h-3.31s1.32-4.97,1.32-4.97c0-.25.03-.46-.13-.64-.11-.13-.34-.21-.56-.2-.5.04-.81.36-1.02.82l-1.35,4.99h-3.32s1.95-7.28,1.95-7.28h3.26c.03.08.05.13.08.15.06.05.13,0,.21-.02,1.05-.25,3.21-.47,3.91.6,1.04-.83,2.99-.95,4.15-.64.63.17,1.06.64,1.17,1.26.09.5,0,.97-.11,1.47l-1.2,4.47h-3.3s1.31-4.97,1.31-4.97c.05-.22.03-.4-.08-.58-.09-.15-.29-.24-.49-.26-.53-.03-.91.29-1.13.79Z"/>
    <path class="cls-2" d="M40.19,38.69h-3.3s1.33-5.07,1.33-5.07c.1-.39-.17-.69-.51-.73-.58-.07-1,.29-1.22.84l-1.35,4.97h-3.31s2.48-9.28,2.48-9.28h3.31s-.55,2.17-.55,2.17c1.04-.22,2.09-.35,3.11-.12.88.19,1.4.88,1.34,1.76-.02.31-.03.58-.11.89l-1.22,4.58Z"/>
    <path class="cls-2" d="M27.85,36.3h3.86c-.4.87-1.14,1.46-1.99,1.85-1.07.49-2.21.59-3.39.58-.93,0-1.83-.04-2.67-.41-1.81-.78-1.43-2.35-.99-3.82.34-1.14,1.15-2.04,2.24-2.53,1.32-.6,2.93-.69,4.37-.58s3.26.65,3.12,2.5c-.04.57-.21,1.12-.39,1.66h-5.64c-.15.32-.22.67-.25,1.03s.2.58.53.62c.56.06,1.05-.25,1.19-.88ZM28.42,34.24c.18-.4.31-1.17-.21-1.32-.42-.12-.88.02-1.15.37-.21.28-.31.61-.36.94h1.71Z"/>
    <path class="cls-2" d="M19.31,34.32l-1.18,4.37h-3.32s1.95-7.28,1.95-7.28h3.23c.07,0,.05.14.08.21.95-.36,1.88-.29,2.9-.25l-.43,1.65c-.71-.08-1.68-.27-2.27.03-.49.25-.82.71-.97,1.27Z"/>
    <path class="cls-4" d="M43.67,22.87s.04,0,.06.01c.15.41.64.34.73.58-.08.23-.35.27-.56.34-.79.24-.25.21-.84.31-.24.04-.43.24-.66.31-.25-.05-.42.12-.55.29-.06,0-.15.03-.21.04-.25.05-.79-.07-.98-.24-.3-.27-.72-.31-1.08-.47-.47-.22-.89-.24-1.11-.32-.14-.05-.21-.26-.42-.18-.19.08-.38-.11-.55-.09-.29.03-.52-.09-.77-.1-.78-.05-1.53-.03-2.31,0-.16,0-.3.17-.5.1-.34-.12-1.5.31-1.39.29l-.6.1c-.18.03-1.74.65-1.73.63-.02.04-.02.11-.01.16-.02,0-.05.01-.06.01h-.44c-.2,0-.37-.22-.38-.4.16-.26.55-.31.89-.61.18.04.32-.04.46-.18.07-.07.24-.07.2-.2h.05c.08.08.71-.16.7-.39h.07c.33-.03.6-.21.89-.36.27-.14,1.11-.35,1.11-.35.02-.05.03-.12.03-.17.01,0,.03,0,.05,0,.17.03.32,0,.5-.05.48-.15.98-.27,1.48-.39.21-.05.46.1.63-.1.97.02,1.96-.13,2.95.03l.78.12c.13.02.41.03.53.08.32.14.68.22,1,.34l1.37.54c.23.09.42.37.68.3Z"/>
    <path class="cls-2" d="M45.09,23.7l-2.65,1.93-4.78,3.35c-.22.02-.38-.03-.58.04l-2.6.02,1.91-2.11,4.76-1.93c.17-.07.38-.1.49-.26.06-.01.15-.05.21-.04l2.45-.96c.17-.07.33-.15.45-.24.42-.09.8-.3,1.2-.47.03.04.08.07.08.09,0,.05-.07.02-.1.03l-.83.55Z"/>
    <path class="cls-4" d="M46.24,25.51l-1.09.88c-.12-.06-.66.36-.77.51-.17.21-.42-.36-.66-.29-.09-.05-.16-.19-.27-.21-.16-.49-.69-.47-.71-.77-.01-.22.31-.28.41-.4.19-.22.4-.28.63-.43.06-.04.15-.16.22-.22.15-.12.92-.6,1-.62.19-.05.26.15.38.18.25.07.25.22.39.36.22.22.56.34.69.69.02.08-.02.13-.08.01-.09.08-.15.18-.14.3Z"/>
    <path class="cls-1" d="M43.67,22.87c-.26.07-.45-.21-.68-.3l-1.37-.54c-.32-.13-.68-.2-1-.34-.12-.05-.4-.06-.53-.08l-.78-.12c-.99-.16-1.98-.01-2.95-.03-.17.2-.42.05-.63.1-.5.12-.99.23-1.48.39-.17.06-.33.08-.5.05,1.02-.43,2.14-.6,3.28-.69,2.26-.18,4.48.33,6.46,1.41.09.05.18.06.17.16Z"/>
    <path class="cls-1" d="M41.63,24.75c-.11.15-.32.19-.49.26-.02-.13-.17-.15-.29-.21l-1-.5c-.95-.38-1.94-.71-2.98-.79l-.71-.05c-.49-.04-.99-.06-1.48,0l-.65.07c-1.37.15-2.63.59-3.87,1.11,0-.05,0-.12.01-.16,0,.02,1.55-.6,1.73-.63l.6-.1c-.12.02,1.05-.41,1.39-.29.2.07.35-.09.5-.1.77-.03,1.53-.04,2.31,0,.25.01.48.13.77.1.16-.01.36.17.55.09.21-.08.29.13.42.18.22.08.64.1,1.11.32.35.17.78.2,1.08.47.19.17.73.29.98.24Z"/>
    <path class="cls-1" d="M46.24,25.51c-.01-.12.05-.22.14-.3.06.12.1.07.08-.01-.13-.34-.47-.47-.69-.69-.14-.14-.13-.3-.39-.36-.13-.03-.19-.23-.38-.18-.08.02-.85.5-1,.62-.08.06-.16.17-.22.22-.23.16-.44.22-.63.43-.1.11-.43.17-.41.4.02.3.55.28.71.77-.27-.05-.45-.26-.68-.44-.13-.1-.3-.16-.32-.33l2.65-1.93.05.11c-.04-.09,1.49,1.18,1.5,1.36-.12.15-.25.28-.4.34Z"/>
    <path class="cls-1" d="M45.16,26.39c.06-.05-.78.82-.88.69-.23-.03-.49-.27-.56-.47.25-.07.5.5.66.29.12-.14.65-.57.77-.51Z"/>
    <path class="cls-1" d="M29.3,24.24c0,.18.17.39.38.39h.44c-.09.13-.25.22-.41.26-.24-.16-.42-.33-.63-.53.06-.1.14-.11.22-.12Z"/>
    <path class="cls-1" d="M44.75,23.51c-.12.09-.28.17-.45.24l-2.45.96c.13-.17.29-.34.55-.29.23-.07.43-.27.66-.31.59-.1.05-.08.84-.31.22-.06.48-.11.56-.34-.09-.23-.58-.17-.73-.58.22.06.38.22.61.33.16.07.25.26.42.3Z"/>
    <path class="cls-1" d="M33.71,21.99c0,.06,0,.12-.03.17,0,0-.85.21-1.11.35-.29.15-.57.34-.89.36.01-.02.02-.07.07-.09.65-.32,1.3-.6,1.97-.79Z"/>
    <path class="cls-1" d="M30.85,23.26c.04.13-.13.13-.2.2-.14.13-.28.21-.46.18.19-.16.39-.38.66-.37Z"/>
    <path class="cls-1" d="M31.6,22.87c0,.23-.62.47-.7.39-.05-.06.63-.38.7-.39Z"/>
  </g>
</svg>