<?xml version="1.0" encoding="UTF-8"?>
<svg id="Layer_1" data-name="Layer 1" xmlns="http://www.w3.org/2000/svg" xmlns:xlink="http://www.w3.org/1999/xlink" viewBox="0 0 60 60">
  <defs>
    <style>
      .cls-1 {
        fill: url(#linear-gradient-2);
      }

      .cls-2 {
        fill: #fff;
      }

      .cls-3 {
        fill: url(#linear-gradient-4);
      }

      .cls-4 {
        fill: url(#linear-gradient-3);
      }

      .cls-5 {
        fill: #f9f3f3;
      }

      .cls-6 {
        fill: #d31d29;
      }

      .cls-7 {
        fill: url(#linear-gradient);
      }
    </style>
    <linearGradient id="linear-gradient" x1="966.15" y1="221.6" x2="968.15" y2="294.5" gradientTransform="translate(-237.87 -42.37) scale(.28)" gradientUnits="userSpaceOnUse">
      <stop offset="0" stop-color="#f7304b"/>
      <stop offset=".43" stop-color="#de212f"/>
      <stop offset=".47" stop-color="#ad171e"/>
      <stop offset=".51" stop-color="#ce111d"/>
      <stop offset=".97" stop-color="#be181d"/>
      <stop offset="1" stop-color="#9f1b1e"/>
    </linearGradient>
    <linearGradient id="linear-gradient-2" x1="997.8" y1="222.16" x2="999.82" y2="295.42" gradientTransform="translate(-237.87 -42.37) scale(.28)" gradientUnits="userSpaceOnUse">
      <stop offset="0" stop-color="#f72d49"/>
      <stop offset=".46" stop-color="#dc1f2b"/>
      <stop offset=".49" stop-color="#ce111d"/>
      <stop offset="1" stop-color="#a71a1e"/>
    </linearGradient>
    <linearGradient id="linear-gradient-3" x1="896.91" y1="223.04" x2="899.1" y2="295.58" gradientTransform="translate(-237.87 -42.37) scale(.28)" gradientUnits="userSpaceOnUse">
      <stop offset="0" stop-color="#f7314c"/>
      <stop offset=".61" stop-color="#c9131d"/>
      <stop offset="1" stop-color="#aa191d"/>
    </linearGradient>
    <linearGradient id="linear-gradient-4" x1="1036.16" y1="222.41" x2="1039.26" y2="295.27" gradientTransform="translate(-237.87 -42.37) scale(.28)" gradientUnits="userSpaceOnUse">
      <stop offset="0" stop-color="#f82f4a"/>
      <stop offset=".55" stop-color="#cc121d"/>
      <stop offset="1" stop-color="#a81a1e"/>
    </linearGradient>
  </defs>
  <path class="cls-2" d="M0,0h60v60H0V0Z"/>
  <g>
    <path class="cls-5" d="M41.35,30.88l-3.18,7.44c-.08.18-.18.38-.34.5h-3.88c-.27,0-.37-.36-.46-.56l-3.16-7.42-.03,9.59c0,.22-.12.34-.32.41l-5.62-.04v-21.66s6.66-.02,6.66-.02l4.78,10.78,4.76-10.75h6.74s0,21.26,0,21.26c0,.26-.17.43-.41.42l-5.3-.03c-.15-.01-.23-.37-.23-.49l-.04-9.45ZM24.87,40.44h5.04s.05-11.45.05-11.45l4.02,9.44h3.68c.28-.3.29-.71.47-1.05.31-.6.53-1.22.79-1.84l.63-1.48,1.26-2.98c.27-.63.63-1.22.78-1.88.07-.03.07-.1.14-.22.1.08.04.2.05.31-.05.11,0,.29,0,.4v10.64c0,.1.07.12.1.12h5.06s0-20.93,0-20.93l-6.1-.03c-.15.5-.3.95-.54,1.41l-.66,1.54-.52,1.07-.37.84c-.3.69-.48,1.4-.96,2-.13.16-.11.41-.16.55-.2.2-1.03,2.07-1,2.29.03.19-.18.27-.26.44l-.56,1.2-.92-2-4.02-9.11c-.31-.07-.56-.23-.87-.23l-5.24.03c-.1.06-.1.15-.1.33v20.37c0,.12,0,.18.06.21.04.02.1.01.15.01Z"/>
    <path class="cls-5" d="M12.11,33.98c2.45,2.1,5.38.69,7.4-1.3.13-.13.3-.2.47-.18.14.01.32.17.44.32.36.49.78.88,1.19,1.32l1.16,1.25c.27.3.49.63.81.89.22.19.19.46,0,.66-1.21,1.28-2.59,2.29-4.19,3.04-4.37,2.05-9.6,1.1-12.85-2.46-2.91-3.2-3.57-8-2.01-11.97s5.13-6.25,9.15-6.55c.84-.06,1.5-.09,2.34,0,2.86.31,5.49,1.64,7.46,3.71.25.26.24.51,0,.78l-3.27,3.96c-.52.63-.78-.4-1.59-1.1-1.11-.96-2.43-1.64-3.9-1.56-2.13.13-3.74,1.6-4.24,3.61-.11.45-.11.81-.14,1.28-.09,1.65.49,3.21,1.75,4.29ZM19.54,33.2c-.11,0-.11.13-.22.22-1.17.95-2.44,1.8-4.02,1.96-1.8.18-3.48-.76-4.45-2.26-.77-1.21-1.03-2.6-.86-4.03.2-1.71,1.09-3.13,2.58-4.09.68-.44,1.65-.57,2.5-.57,1.4,0,2.62.66,3.67,1.52.26.21.54.31.69.63.12.24.26.47.52.64l3.33-4.06c-.18-.38-.54-.54-.85-.79-.22-.18-.4-.48-.68-.65l-1.11-.67c-.48-.29-.99-.59-1.5-.76l-1.63-.56c-1.21-.41-2.59-.47-3.89-.27-.46.07-.93-.08-1.35.26-.19.15-.46.04-.66.07-.79.14-1.48.51-2.19.87-2.72,1.36-4.76,4.3-5.1,7.32-.47,2.18-.16,4.45.74,6.51,1.34,3.08,4.06,5.25,7.34,5.94,4.15.87,8.1-.73,10.94-3.81-.5-.63-1.01-1.13-1.53-1.69-.17-.18-.47-.27-.57-.5-.18-.41-.47-.65-.81-.93-.19-.16-.22-.52-.52-.58-.14-.03-.26.15-.37.27Z"/>
    <path class="cls-5" d="M56.28,19.13v21.7h-6.54v-21.7h6.54ZM55.88,40.45v-20.95h-5.78v20.95h5.78Z"/>
    <path class="cls-7" d="M36.64,29.18s.13-.11.17-.09c.16.08-.08.2-.09.45.66-.16,1.34-.02,2.03.03s1.34-.04,2,.06c.05.1-.03.23.09.36.06-.71.46-1.31.79-2.01.36.27.08.71-.04,1.22-.16.65-.52,1.24-.78,1.88l-1.26,2.98-.63,1.48c-.26.62-.47,1.23-.79,1.84-.18.34-.19.75-.47,1.07h-3.68s-4.02-9.45-4.02-9.45l-.05,11.46h-5.04c-.09-.15-.1-.29-.1-.53v-20.39s5.24-.03,5.24-.03c.3,0,.56.16.87.23l4.02,9.11.92,2,.56-1.2c.08-.17.29-.25.26-.44ZM24.96,19.73h3.82c.16.06.39.24.46-.08l-4.38-.03.07,11.51.1,7.89c.07-2.71,0-5.3,0-7.99l-.06-11.31ZM29.36,27.58l-.07,1.76c-.63.22-1.26.1-1.91.14-.47.03-.91.16-1.4.09-.28-.04-.53.05-.79.11l-.06-7.45-.06,7.63c.51-.16.99-.24,1.52-.18.39.04.73-.07,1.1-.1.6-.04,1.16.03,1.72-.06l-.05-1.95ZM34.53,29.48c.13,0,.25-.17.19-.27-.14-.24-.22-.44-.36-.62-.09.34.2.43.21.76l-4.17.08c1.36.12,2.72.01,4.12.05ZM34.13,37.98l3.25.03c.22-.51.53-.87.58-1.41l-.72,1.3-3.11.07Z"/>
    <path class="cls-1" d="M41.89,40.44v-10.64c0-.08-.07-.13-.1-.11,0-.11-.05-.3,0-.4.23-.5.06-1.06.09-1.6-.16.21-.16.18-.22-.09l-.93,1.9c-.68-.05-1.28-.04-1.9-.07l-2-.11c.25-.42,1.47-2.44,1.03-2.55-.12.08-.17.26-.21.13.05-.15.03-.39.16-.55.48-.61.66-1.32.96-2l.37-.84.52-1.07.66-1.54c.24-.45.39-.9.54-1.41l6.1.03v20.94s-5.06,0-5.06,0ZM46.51,39.79c0,.17-.25.22-.29.29.1.09.26.07.29,0,.02-.06.11-.16.11-.28l-.02-9.41c0-.35-.19-.66-.12-1.03.14-.83-.05-1.67,0-2.46.03-.49-.01-.88-.02-1.36l-.11-5.82-.04,9.33c0,.29.13.55,0,.84-.39,0-.76-.09-1.11.03l1.25.11c.12.6.12,1.23,0,1.8-.07.37.06.67.06,1.05v6.9ZM38.27,26.35c.77-1.49,1.54-2.91,2.07-4.42-.78,1.51-1.54,2.9-2.07,4.42Z"/>
    <path class="cls-6" d="M24.87,40.44s-.11.01-.15-.01c-.05-.03-.06-.09-.06-.21v-20.37c0-.18,0-.27.1-.33v20.39c0,.24,0,.38.1.52Z"/>
    <path class="cls-6" d="M41.89,40.44s-.1-.02-.1-.12v-10.64s.1.03.1.11v10.64Z"/>
    <path class="cls-6" d="M41.78,29.28c0-.1.05-.23-.05-.31-.07.12-.07.19-.14.22.12-.51.4-.96.04-1.22-.33.7-.73,1.3-.79,2.01-.13-.13-.04-.26-.09-.36-.65-.1-1.3,0-2-.06s-1.37-.19-2.03-.03c0-.25.24-.37.09-.45-.04-.02-.12.11-.17.09-.03-.21.8-2.09,1-2.29.05.13.09-.05.21-.13.44.11-.78,2.14-1.03,2.55l2,.11c.62.03,1.22.02,1.9.07l.93-1.9c.06.27.06.3.22.09-.03.53.14,1.09-.09,1.6Z"/>
    <path class="cls-4" d="M19.32,33.42s.09.16.16.15.11-.11.19-.13c.1-.02.15.12.26.2-.8.95-1.9,1.53-2.98,2.06.69.05,3.21-1.65,3.09-2.13-.09-.37-.43-.19-.5-.37.1-.12.23-.3.37-.27.29.06.33.43.52.58.33.28.63.52.81.93.1.24.41.32.57.5.52.56,1.02,1.06,1.53,1.69-2.84,3.08-6.79,4.68-10.94,3.81-3.28-.69-6-2.85-7.34-5.94-.89-2.06-1.2-4.33-.74-6.51.34-3.02,2.38-5.96,5.1-7.32.71-.36,1.41-.73,2.19-.87.2-.03.47.08.66-.07.43-.34.9-.19,1.35-.26,1.29-.19,2.67-.14,3.89.27l1.63.56c.51.17,1.03.47,1.5.76l1.11.67c.28.17.46.47.68.65.31.25.67.4.85.79l-3.33,4.06c-.25-.16-.4-.4-.52-.64-.15-.32-.44-.42-.69-.63-1.05-.86-2.27-1.52-3.67-1.52-.84,0-1.82.13-2.5.57-1.49.96-2.38,2.38-2.58,4.09-.17,1.43.09,2.82.86,4.03.97,1.51,2.64,2.45,4.45,2.26,1.58-.16,2.86-1.01,4.02-1.96ZM7.43,23.07c.96-1.21,2.25-1.85,3.56-2.53-1.55.41-2.79,1.44-3.86,2.59-.41.44-.92.81-.96,1.46.35-.57.68-1.09,1.26-1.52ZM19.72,26.61l2.8-3.37c.09-.11.13-.24.13-.34,0-.12-.05-.2-.27-.27.16.52-.31.78-.57,1.13-.68.92-1.37,1.74-2.07,2.58-.03.03-.16-.1-.17-.07-.01.03-.05.1-.03.13l.18.21ZM10.33,26.48c1.27-2.05,3.58-2.89,5.85-2.28.84.23,1.46.78,2.3,1.12-1.34-1.23-3.29-1.79-5.06-1.34-1.62.41-2.79,1.46-3.51,2.93s-.67,3.27-.27,4.9c.06.11.21.33.35.33-.79-1.9-.74-3.94.33-5.67Z"/>
    <path class="cls-6" d="M19.32,33.42c.11-.09.12-.22.22-.22.07.18.4,0,.5.37.12.48-2.4,2.18-3.09,2.13,1.08-.53,2.18-1.11,2.98-2.06-.1-.09-.16-.22-.26-.2-.08.02-.12.13-.19.13s-.12-.11-.16-.15Z"/>
    <path class="cls-3" d="M55.78,19.5v20.95h-5.68v-20.95h5.68ZM50.34,19.73h-.1v15.22h.1v-15.22ZM50.44,39.98l5.02.03.04-8.22-.1-.83c-.44-3.75.04-7.58-.05-11.27l-.09,11.25c0,.07-.17.14-.18.19s.29.05.29.1v8.67s-4.93.08-4.93.08ZM50.59,25.47l.08-5.38c.28-.13.51,0,.79-.1-.27-.1-.55-.08-.91,0l-.05,5.32-.02,9.39.11-9.24Z"/>
    <rect class="cls-6" x="55.78" y="19.5" width=".1" height="20.95"/>
    <path class="cls-6" d="M24.96,19.73l.06,11.31c.01,2.69.08,5.28,0,7.99l-.1-7.89-.07-11.51,4.38.03c-.07.33-.3.15-.46.09h-3.82Z"/>
    <path class="cls-6" d="M29.36,27.58l.05,1.95c-.56.09-1.12.02-1.72.06-.37.03-.72.14-1.1.1-.53-.05-1.01.03-1.52.18l.06-7.63.06,7.45c.26-.06.51-.15.79-.11.49.07.93-.06,1.4-.09.65-.04,1.28.08,1.91-.14l.07-1.76Z"/>
    <path class="cls-6" d="M34.53,29.48c-1.41-.04-2.77.06-4.12-.05l4.17-.08c0-.33-.3-.42-.21-.76.14.18.22.39.36.62.06.1-.06.27-.19.27Z"/>
    <path class="cls-6" d="M34.13,37.98l3.11-.07.72-1.3c-.04.53-.35.89-.58,1.41l-3.25-.03Z"/>
    <path class="cls-6" d="M46.51,39.79v-6.9c0-.37-.14-.67-.06-1.05.11-.57.11-1.21,0-1.8l-1.25-.11c.35-.13.73-.03,1.11-.03.14-.29,0-.54,0-.84l.04-9.33.11,5.82c0,.48.05.88.02,1.36-.05.79.15,1.63,0,2.46-.07.37.12.68.12,1.03l.02,9.41c0,.12-.09.22-.11.28-.02.07-.19.09-.29,0,.04-.07.29-.12.29-.29Z"/>
    <path class="cls-6" d="M38.27,26.35c.53-1.52,1.29-2.91,2.07-4.42-.53,1.51-1.3,2.92-2.07,4.42Z"/>
    <path class="cls-6" d="M10.33,26.48c-1.07,1.73-1.12,3.76-.33,5.67-.14,0-.3-.23-.35-.33-.4-1.63-.47-3.38.27-4.9s1.89-2.53,3.51-2.93c1.77-.44,3.72.11,5.06,1.34-.84-.34-1.46-.9-2.3-1.12-2.27-.61-4.58.23-5.85,2.28Z"/>
    <path class="cls-6" d="M19.72,26.61l-.18-.21s.02-.09.03-.13c.01-.03.15.11.17.07.7-.84,1.39-1.66,2.07-2.58.26-.35.73-.62.57-1.13.22.06.27.15.27.27,0,.1-.04.23-.13.34l-2.8,3.37Z"/>
    <path class="cls-6" d="M7.43,23.07c-.58.43-.91.95-1.26,1.52.04-.65.55-1.02.96-1.46,1.07-1.14,2.3-2.18,3.86-2.59-1.31.68-2.6,1.32-3.56,2.53Z"/>
    <path class="cls-6" d="M50.59,25.47l-.11,9.24.02-9.39.05-5.32c.36-.08.64-.11.91,0-.28.11-.52-.02-.79.1l-.08,5.38Z"/>
    <rect class="cls-6" x="50.24" y="19.73" width=".1" height="15.22"/>
    <path class="cls-6" d="M50.44,39.98l4.93-.08v-8.67s-.3-.05-.29-.1.18-.12.18-.19l.09-11.25c.09,3.69-.39,7.51.05,11.27l.1.83-.04,8.22-5.02-.03Z"/>
  </g>
</svg>