<?xml version="1.0" encoding="UTF-8"?>
<svg id="Layer_1" data-name="Layer 1" xmlns="http://www.w3.org/2000/svg" viewBox="0 0 60 60">
  <defs>
    <style>
      .cls-1 {
        fill: #fff;
      }

      .cls-2 {
        fill: #f54e1e;
      }

      .cls-3 {
        fill: #ffad00;
      }
    </style>
  </defs>
  <rect class="cls-2" width="60" height="60"/>
  <g>
    <path class="cls-1" d="M30.19,49.66c1.29-.29,2.07-1.72,1.77-3.02-.17-.73-.22-1.49-.13-2.29.33-3.07,2.79-5.54,5.83-5.88,1.53-.17,2.98.19,4.17.92,1.08.66,2.47.28,3.18-.76,1.43-2.1,2.55-4.39,3.38-6.91,2.03-6.16,1.7-11.45-.99-15.74-1.93-3.08-5.82-6.75-13.37-6.75h-.11l-3.82.02c-2.67.01-5.47,1.02-7.85,2.83-2.34,1.78-4.1,4.19-4.95,6.77l-6.44,19.55c-.38,1.17-.57,2.34-.57,3.47,0,2.73,1.11,5.22,3.2,6.9,1.6,1.29,3.63,1.97,5.86,1.97h.05s4.26.4,10.79-1.07h0ZM38.38,29.08c-1.05,3.2-2.78,5.58-5.6,7.72-2.66,2.02-5.51,3.06-8.47,3.07h-3.19c-.09.01-.17,0-.22,0,0-.11.02-.28.11-.55l5.37-16.3c.24-.74.82-1.49,1.58-2.07.72-.55,1.51-.86,2.16-.87l3.19-.02h.06c3.21,0,4.36,1.25,4.95,2.18,1.01,1.6,1.02,3.9.06,6.83h0Z"/>
    <path class="cls-3" d="M38.35,49.99c2.74,0,4.96-2.24,4.96-5s-2.22-5-4.96-5-4.95,2.24-4.95,5,2.22,5,4.95,5Z"/>
  </g>
</svg>