<?xml version="1.0" encoding="UTF-8"?>
<svg id="Layer_1" data-name="Layer 1" xmlns="http://www.w3.org/2000/svg" viewBox="0 0 60 60">
  <defs>
    <style>
      .cls-1 {
        fill: #ffc333;
      }

      .cls-2 {
        fill: #00a182;
      }
    </style>
  </defs>
  <rect class="cls-1" x="0" width="60" height="60"/>
  <g>
    <path class="cls-2" d="M20.51,11.99c7.79-7.35,20.48-3.46,22.87,6.89.8,3.48.18,7.07-1.62,10.1-.17.29-.44.69-.8,1.21-2.12,3.01-4.24,6.01-6.37,9-.92,1.29-1.61,2.49-3.27,2.68-1.17.13-2.42.14-3.51-.22-.65-.22-1.08-.67-1.52-1.28-2.33-3.29-4.67-6.57-7.01-9.86-.66-.93-1.27-1.86-1.73-2.86-2.42-5.26-1.27-11.65,2.98-15.65ZM35.65,25.82c3.24-4.61-.27-10.95-5.82-10.78-3.39.1-6.09,2.48-6.64,5.83-.09.57-.06,1.14-.06,1.71,0,.1.05.18.06.29,0,.13.01.2.02.22.26,1.44.86,2.33,1.72,3.56,1.67,2.38,3.33,4.74,5,7.07.05.07.1.07.14,0,1.92-2.69,3.78-5.32,5.59-7.9Z"/>
    <ellipse class="cls-2" cx="29.95" cy="48.02" rx="3.87" ry="3.78" transform="translate(-4.31 2.97) rotate(-5.3)"/>
  </g>
</svg>