<?xml version="1.0" encoding="UTF-8"?>
<svg id="Layer_1" data-name="Layer 1" xmlns="http://www.w3.org/2000/svg" viewBox="0 0 60 60">
  <defs>
    <style>
      .cls-1 {
        fill: #a24689;
      }

      .cls-2 {
        fill: #fff;
      }
    </style>
  </defs>
  <path class="cls-1" d="M0,0h60v60H0V0Z"/>
  <path class="cls-2" d="M12.47,26.32c.76,0,1.48.15,2.15.45.67.3,1.27.71,1.78,1.22.51.51.92,1.11,1.22,1.79.3.68.45,1.41.45,2.19s-.15,1.5-.44,2.17c-.29.67-.69,1.27-1.2,1.78-.5.51-1.1.91-1.78,1.21-.68.29-1.42.44-2.21.44s-1.5-.14-2.19-.42c-.68-.28-1.28-.67-1.79-1.17-.51-.5-.91-1.1-1.21-1.78-.29-.68-.44-1.43-.44-2.23s.14-1.5.43-2.17c.29-.67.69-1.26,1.2-1.77.51-.5,1.11-.91,1.8-1.21.69-.3,1.43-.47,2.22-.5h0ZM12.44,28.62c-.45,0-.88.09-1.29.26-.41.17-.77.41-1.07.71-.3.3-.54.66-.72,1.06-.18.4-.27.85-.27,1.33,0,.45.09.88.27,1.29.18.41.42.77.72,1.08.3.31.66.55,1.07.73.41.18.84.27,1.29.27.44,0,.88-.09,1.29-.27.41-.18.77-.42,1.07-.73.3-.31.54-.67.72-1.08.18-.41.27-.85.27-1.29-.05-.91-.37-1.69-.98-2.31-.6-.63-1.39-.97-2.35-1.03h-.02s0,0,0,0ZM28.65,22.74c.26-.02.51.09.74.31.23.22.35.47.35.73v8.16c0,.76-.16,1.48-.47,2.16-.31.68-.73,1.28-1.26,1.79-.53.51-1.13.92-1.8,1.22s-1.38.45-2.13.45-1.48-.15-2.16-.44c-.68-.29-1.28-.7-1.79-1.21-.51-.51-.92-1.11-1.22-1.79-.3-.68-.45-1.41-.45-2.19,0-.84.14-1.57.41-2.21.27-.64.68-1.23,1.22-1.79v.02c.57-.54,1.21-.95,1.9-1.23.69-.28,1.4-.42,2.13-.42.43,0,.95.07,1.55.21.6.14,1.19.41,1.78.81v-3.44c0-.15.03-.3.09-.44.06-.14.14-.27.24-.38.1-.11.22-.21.36-.27.14-.06.28-.09.42-.07h.09ZM27.44,31.95c0-.42-.09-.83-.27-1.23-.18-.4-.43-.77-.73-1.08-.31-.32-.67-.57-1.07-.76-.4-.19-.83-.28-1.28-.28-.44,0-.88.09-1.29.27-.41.18-.77.42-1.07.72-.3.3-.54.66-.72,1.07-.18.41-.27.84-.27,1.29s.09.9.27,1.3c.18.4.42.76.72,1.06s.66.54,1.07.72c.41.18.84.27,1.29.27s.88-.09,1.28-.27c.4-.18.76-.42,1.07-.72.31-.3.55-.65.73-1.06.18-.4.27-.84.27-1.3ZM36.05,26.32c.76,0,1.48.15,2.15.45.67.3,1.27.71,1.78,1.22.51.51.92,1.11,1.22,1.79.3.68.45,1.41.45,2.19s-.15,1.5-.44,2.17c-.29.67-.69,1.27-1.2,1.78-.5.51-1.1.91-1.78,1.21-.68.29-1.42.44-2.21.44s-1.5-.14-2.19-.42c-.68-.28-1.28-.67-1.79-1.17-.51-.5-.91-1.1-1.21-1.78-.29-.68-.44-1.43-.44-2.23s.14-1.5.43-2.17c.29-.67.69-1.26,1.2-1.77.51-.5,1.11-.91,1.8-1.21.69-.3,1.43-.47,2.22-.5h0ZM36.02,28.62c-.45,0-.88.09-1.29.26-.41.17-.77.41-1.07.71-.3.3-.54.66-.72,1.06-.18.4-.27.85-.27,1.33,0,.45.09.88.27,1.29.18.41.42.77.72,1.08.3.31.66.55,1.07.73.41.18.84.27,1.29.27.44,0,.88-.09,1.29-.27.41-.18.77-.42,1.07-.73.3-.31.54-.67.72-1.08.18-.41.27-.85.27-1.29-.05-.91-.37-1.69-.98-2.31-.6-.63-1.39-.97-2.35-1.03h-.02s0,0,0,0ZM47.86,26.32c.76,0,1.48.15,2.15.45.67.3,1.27.71,1.78,1.22.51.51.92,1.11,1.22,1.79.3.68.45,1.41.45,2.19s-.15,1.5-.44,2.17c-.29.67-.69,1.27-1.2,1.78-.5.51-1.1.91-1.78,1.21-.68.29-1.42.44-2.21.44s-1.5-.14-2.19-.42c-.68-.28-1.28-.67-1.79-1.17-.51-.5-.91-1.1-1.21-1.78-.29-.68-.44-1.43-.44-2.23s.14-1.5.43-2.17c.29-.67.69-1.26,1.2-1.77.51-.5,1.11-.91,1.8-1.21.69-.3,1.43-.47,2.22-.5h0ZM47.84,28.62c-.45,0-.88.09-1.29.26-.41.17-.77.41-1.07.71-.3.3-.54.66-.72,1.06-.18.4-.27.85-.27,1.33,0,.45.09.88.27,1.29.18.41.42.77.72,1.08.3.31.66.55,1.07.73.41.18.84.27,1.29.27.44,0,.88-.09,1.29-.27.41-.18.77-.42,1.07-.73.3-.31.54-.67.72-1.08.18-.41.27-.85.27-1.29-.05-.91-.37-1.69-.98-2.31-.6-.63-1.39-.97-2.35-1.03h-.02s0,0,0,0Z"/>
</svg>