<?xml version="1.0" encoding="utf-8"?>
<!-- Generator: Adobe Illustrator 19.0.0, SVG Export Plug-In . SVG Version: 6.00 Build 0)  -->
<svg version="1.1" id="Calque_1" xmlns="http://www.w3.org/2000/svg" xmlns:xlink="http://www.w3.org/1999/xlink" x="0px" y="0px"
	 viewBox="0 0 353.6 298.5" style="enable-background:new 0 0 353.6 298.5;" xml:space="preserve">
<style type="text/css">
	.st0{fill:#EBD42A;}
	.st1{fill:#218A9D;}
	.st2{stroke:#000000;stroke-miterlimit:10;}
</style>
<path id="XMLID_26_" class="st0" d="M174.7,50.6c-5.3,0-10.4,0.9-15.2,2.5c-0.1,0-0.2,0.1-0.3,0.1l38.7,42.1c2.1,2.1,2.1,5.5,0,7.6
	l-40.5,40.4c0.1,0,0.2,0.1,0.3,0.1c5.3,2,11,3.1,17,3.1c26.5,0,48-21.5,48-48S201.2,50.6,174.7,50.6z M203.7,103.6V93.2h10.4v10.4
	H203.7z"/>
<path id="XMLID_22_" class="st1" d="M197.8,95.3c2.1,2.1,2.1,5.5,0,7.6l-40.5,40.4c-17.9-7-30.7-24.4-30.7-44.8
	c0-21.1,13.6-39,32.5-45.4h0L197.8,95.3z"/>
<rect id="XMLID_23_" x="203.7" y="93.2" class="st1" width="10.4" height="10.4"/>
<g id="XMLID_6_">
	<path id="XMLID_18_" d="M197.8,103l-40.5,40.4l0-15.2l28-28c0.6-0.6,0.6-1.6,0.1-2.2l-26.2-29.3l0-15.5h0l38.7,42.1
		C199.9,97.4,199.9,100.9,197.8,103z"/>
	<rect id="XMLID_17_" x="203.7" y="93.2" width="10.4" height="10.4"/>
</g>
<g id="XMLID_2_">
	<path id="XMLID_30_" d="M132.5,223.2c-3.5,0-7.2,1.3-9.8,3.7l3,3.5c1.5-1.5,3.8-2.6,6.3-2.6c2.9,0,5.3,1.4,5.3,4.2v0.6
		c-7.2,0-15.9,1-15.9,7.8c0,5.4,5,7.2,8.7,7.2c3.3,0,6-1.5,7.2-3.5h0.1v2.9h5.4v-14C142.8,228.3,140.8,223.2,132.5,223.2z
		 M137.4,237.3c0,3.7-2.1,5.9-6.1,5.9c-2,0-4-0.7-4-2.9c0-3.4,5.1-3.8,8.8-3.8h1.3V237.3z"/>
	<path id="XMLID_49_" d="M172.4,223.2c-3.5,0-7.2,1.3-9.8,3.7l3,3.5c1.5-1.5,3.8-2.6,6.3-2.6c2.9,0,5.3,1.4,5.3,4.2v0.6
		c-7.2,0-15.9,1-15.9,7.8c0,5.4,5,7.2,8.7,7.2c3.3,0,6-1.5,7.2-3.5h0.1v2.9h5.4v-14C182.7,228.3,180.6,223.2,172.4,223.2z
		 M177.2,237.3c0,3.7-2.1,5.9-6.1,5.9c-2,0-4-0.7-4-2.9c0-3.4,5.1-3.8,8.8-3.8h1.3V237.3z"/>
	<path id="XMLID_52_" d="M218,223.2c-3.5,0-7.2,1.3-9.8,3.7l3,3.5c1.5-1.5,3.8-2.6,6.3-2.6c2.9,0,5.3,1.4,5.3,4.2v0.6
		c-7.2,0-15.9,1-15.9,7.8c0,5.4,5,7.2,8.7,7.2c3.3,0,6-1.5,7.2-3.5h0.1v2.9h5.4v-14C228.3,228.3,226.3,223.2,218,223.2z
		 M222.9,237.3c0,3.7-2.1,5.9-6.1,5.9c-2,0-4-0.7-4-2.9c0-3.4,5.1-3.8,8.8-3.8h1.3V237.3z"/>
	<path id="XMLID_55_" d="M251.9,223.2c-3.5,0-7.2,1.3-9.8,3.7l3,3.5c1.5-1.5,3.8-2.6,6.3-2.6c2.9,0,5.3,1.4,5.3,4.2v0.6
		c-7.2,0-15.9,1-15.9,7.8c0,5.4,5,7.2,8.7,7.2c3.3,0,6-1.5,7.2-3.5h0.1v2.9h5.4v-14C262.2,228.3,260.1,223.2,251.9,223.2z
		 M256.7,237.3c0,3.7-2.1,5.9-6.1,5.9c-2,0-4-0.7-4-2.9c0-3.4,5.1-3.8,8.8-3.8h1.3V237.3z"/>
	<path id="XMLID_56_" d="M195.8,228c2,0,3.8,1.1,4.7,2.3l3.5-3.1c-1.8-2.2-5-3.3-8.1-3.3c-4.3,0-8.6,2.1-8.6,6.9
		c0,4.1,3.2,5.4,6.4,6.1c3.3,0.8,5,1.3,5,3.1c0,1.9-1.9,2.6-3.5,2.6c-2.3,0-4.4-1.2-5.5-2.7l-3.6,3.3c2.1,2.3,5.5,3.6,8.9,3.6
		c4.7,0,9-1.9,9-7.2c0-4.2-3.8-5.7-7-6.4c-3-0.7-4.7-1.2-4.7-2.8C192.3,228.6,194.1,228,195.8,228z"/>
	<rect id="XMLID_57_" x="232.8" y="213.7" width="5.5" height="33.1"/>
	<path id="XMLID_100_" d="M277.2,217.3c0.7,0,1.4,0.1,2,0.3v-4.7c-0.7-0.1-1.3-0.2-2.3-0.2c-6.7,0-8.7,4.6-8.7,9.7v2.9v0.3v4.3v1.6
		v15.6h5.4V231v-1.1v-1.6h2.3h3.3V224h-3.3h-2.3v-1.9C273.6,219.9,274.1,217.3,277.2,217.3z"/>
	<path id="XMLID_101_" d="M148.5,222.4v2.9v0.3v4.3v1.6v15.6h5.4V231v-1.1v-1.6h2.3h3.3V224h-3.3h-2.3v-1.9c0-2.2,0.5-4.8,3.6-4.8
		c0.7,0,1.4,0.1,2,0.3v-4.7c-0.7-0.1-1.3-0.2-2.3-0.2C150.5,212.7,148.5,217.3,148.5,222.4z"/>
	<path id="XMLID_102_" d="M117.9,215.6l-6.6,14.3c-0.5,1.1-0.9,2.1-1.3,3c-0.2,0.4-0.3,0.7-0.4,1.1l-7.4-13.9l-2.2-4.4h-4.1
		l-9.5,17.8c-0.1-0.2-0.2-0.5-0.3-0.7c-0.4-0.8-0.8-1.8-1.3-3l-6.7-14.1h-6.8l14.3,30.5c0.3,0.7,1.3,0.7,1.6,0l4.9-9.8l0,0l1.6-3.1
		l0,0l4.4-8.4v0l7.7,15.3l3.1,6.1c0.3,0.7,1.3,0.6,1.6,0l14.3-30.5H117.9z"/>
</g>
<g id="XMLID_88_">
	<path id="XMLID_91_" class="st2" d="M271.2,180.9c-5.5,0-10.1,4.5-10.1,10.1v5.3h16.2c-0.4,2.9-2.9,5.2-5.9,5.2h-13.3v4h13.3
		c5.5,0,10-4.5,10-10v-14.6H271.2z M277.4,192.3h-12.3V191c0-3.3,2.7-6.1,6.1-6.1h6.2V192.3z"/>
	<path id="XMLID_94_" class="st2" d="M231.8,183.8v4.2h17.7v5.2h-43.8v-28.7h-4v32.7h51.8v-25h-10
		C237,172.1,231.8,177.4,231.8,183.8z M249.5,184h-13.7v-0.2c0-4.2,3.4-7.7,7.7-7.7h6V184z"/>
	<rect id="XMLID_95_" x="242.3" y="161.8" class="st2" width="5.3" height="5.3"/>
	<rect id="XMLID_96_" x="119.3" y="161.8" class="st2" width="5.3" height="5.3"/>
	<path id="XMLID_99_" class="st2" d="M190.3,193.5h-8v-13.7h-4v13.7H170v-13.7h-4v13.7h-18v-28h-4v28h-15v-20.9h-10
		c-6.4,0-11.7,5.2-11.7,11.7v4.2H125v5.1H83c-4,0-7.3-3.3-7.3-7.3v-6.3h-4v6.3c0,6.3,5.1,11.3,11.3,11.3h111.3v-17.7h-4V193.5z
		 M111.4,184.4v-0.2c0-4.2,3.4-7.7,7.7-7.7h6v7.8H111.4z"/>
</g>
</svg>
