<?xml version="1.0" encoding="UTF-8"?>
<svg id="Layer_1" data-name="Layer 1" xmlns="http://www.w3.org/2000/svg" xmlns:xlink="http://www.w3.org/1999/xlink" viewBox="0 0 60 60">
  <defs>
    <style>
      .cls-1 {
        fill: #fb2576;
      }

      .cls-2 {
        fill: #fff;
      }

      .cls-3 {
        fill: url(#linear-gradient);
      }

      .cls-4 {
        fill: #6316db;
      }
    </style>
    <linearGradient id="linear-gradient" x1="6.22" y1="25.25" x2="11.22" y2="29.44" gradientTransform="translate(0 62) scale(1 -1)" gradientUnits="userSpaceOnUse">
      <stop offset="0" stop-color="#fb2576"/>
      <stop offset=".24" stop-color="#f82475"/>
      <stop offset=".41" stop-color="#ef2273"/>
      <stop offset=".56" stop-color="#df1e6f"/>
      <stop offset=".7" stop-color="#c91969"/>
      <stop offset=".82" stop-color="#ad1361"/>
      <stop offset=".94" stop-color="#8a0a58"/>
      <stop offset="1" stop-color="#770653"/>
    </linearGradient>
  </defs>
  <path class="cls-4" d="M0,0h60v60H0V0Z"/>
  <g>
    <path class="cls-3" d="M10.02,30.54l-4.38,6.48h3.88l1.76-2.61c.41-.61.62-1.04-.09-2.14l-1.18-1.73Z"/>
    <path class="cls-2" d="M18.29,24.06h-3.88l-2.45,3.62,1.18,1.73c.71,1.09.49,1.53.09,2.14l5.06-7.48Z"/>
    <path class="cls-1" d="M13.13,29.4l-3.62-5.34h-3.88l5.56,8.21c.71,1.09.49,1.53.09,2.14l.14-.21,1.8-2.66c.41-.61.63-1.04-.09-2.14Z"/>
    <path class="cls-2" d="M28.09,36.72c-.67-.29-1.07-.69-1.46-1.21-.39-.51-.6-1.09-.65-1.72h2.85c.03.34.2.62.47.83.29.21.63.32,1.04.32.38,0,.67-.07.87-.22s.31-.33.31-.57c0-.29-.15-.49-.44-.63s-.77-.29-1.43-.45c-.7-.16-1.3-.33-1.76-.52-.47-.18-.87-.47-1.22-.87-.34-.39-.51-.92-.51-1.6,0-.56.16-1.08.47-1.54.31-.47.77-.83,1.38-1.1.6-.27,1.32-.41,2.16-.41,1.23,0,2.21.31,2.92.91.71.61,1.12,1.42,1.22,2.43h-2.78c-.05-.34-.2-.61-.45-.81s-.59-.3-1-.3c-.35,0-.62.07-.81.2s-.29.32-.29.55c0,.29.15.5.45.64.3.14.77.29,1.4.42.73.19,1.32.38,1.78.55.46.18.87.47,1.21.88.35.41.52.95.54,1.63,0,.58-.16,1.09-.48,1.54-.33.46-.79.81-1.4,1.07-.6.26-1.31.39-2.11.39-.87,0-1.63-.15-2.3-.44Z"/>
    <path class="cls-2" d="M37.06,36.72c-.67-.29-1.07-.69-1.46-1.21s-.6-1.09-.65-1.72h2.85c.03.34.2.62.47.83.29.21.63.32,1.04.32.38,0,.67-.07.87-.22s.31-.33.31-.57c0-.29-.15-.49-.44-.63s-.77-.29-1.43-.45c-.7-.16-1.3-.33-1.76-.52-.47-.18-.87-.47-1.22-.87-.34-.39-.51-.92-.51-1.6,0-.56.16-1.08.47-1.54.31-.47.77-.83,1.38-1.1.6-.27,1.32-.41,2.16-.41,1.23,0,2.21.31,2.92.91.71.61,1.12,1.42,1.22,2.43h-2.79c-.05-.34-.2-.61-.45-.81s-.59-.3-1-.3c-.35,0-.62.07-.81.2s-.29.32-.29.55c0,.29.15.5.45.64.3.14.77.29,1.4.42.73.19,1.32.38,1.78.55.46.18.87.47,1.21.88.35.41.52.95.54,1.63,0,.58-.16,1.09-.48,1.54-.33.46-.79.81-1.4,1.07-.6.26-1.31.39-2.11.39-.87,0-1.62-.15-2.29-.44Z"/>
    <g>
      <rect class="cls-2" x="44.29" y="27.17" width="2.85" height="9.84"/>
      <circle class="cls-2" cx="45.72" cy="24.52" r="1.67"/>
    </g>
    <path class="cls-2" d="M53.58,27.17c-1.27,0-2.74.49-3.77,1.54-1.13,1.17-1.55,2.51-1.55,3.73v4.57h2.85v-4.57c0-.81.36-1.37.71-1.71.36-.35.87-.71,1.71-.71h.83v-2.85h-.78Z"/>
    <path class="cls-2" d="M20.26,27.1c-2.79,0-4.99,2.2-4.99,4.99s2.09,4.92,4.93,4.92h.24l1.9-2.81h-1.57c-.79,0-1.57-.21-1.98-.63-.38-.38-.64-.91-.64-1.49,0-1.21.91-2.11,2.11-2.11s2.12.91,2.12,2.11v4.92h2.87v-4.92c0-2.8-2.21-4.99-4.99-4.99Z"/>
  </g>
</svg>